<?xml version="1.0" encoding="UTF-8"?>
<svg id="_图层_8" data-name="图层 8" xmlns="http://www.w3.org/2000/svg" viewBox="0 0 1920 1920">
  <defs>
    <style>
      .cls-1, .cls-2 {
        stroke-width: 0px;
      }

      .cls-2 {
        fill: #fff;
      }
    </style>
  </defs>
  <rect class="cls-2" x="48.36" y="48.36" width="1823.28" height="1823.28"/>
  <path class="cls-1" d="m1436.12,939.83c-18.78-19.48-27.83-23.65-41.04-24.35-13.22-.7-26.43-2.78-26.43-2.78,0,0,11.13-48.7,12.52-66.78,1.39-18.09,4.17-286.61,4.17-286.61l-16.7-16,12.52-12.52-40.35-18.78,4.17-39.65-62.61-25.74,1.39-49.39-40.35,11.83-108.52-75.83-67.48,21.57-25.04-39.65-32.7,23.65-32.7-38.26-148.17,42.43-55.65-56.35-36.87,91.83-41.04-12.52,11.83,41.04-120.35,11.83,41.04,34.09-80,25.04,31.3,26.43s-20.87,93.22-27.83,111.3c-6.96,18.09-13.22,45.91-16,79.3-2.78,33.39,0,155.13,0,155.13l-28.52-2.09s-39.65,10.43-42.43,52.17c-2.78,41.74,13.22,77.91,13.22,77.91l-.7,141.22s11.13,27.83,29.91,34.78c18.78,6.96,24.35,6.26,24.35,6.26,0,0-1.39,66.78,6.96,100.87,8.35,34.09,47.3,131.48,101.57,187.83,54.26,56.35,96.7,99.48,125.22,115.48,28.52,16,104.35,50.78,109.91,50.78s18.78,14.61,71.65,18.09c0,0,25.74-3.48,56.35-22.26,30.61-18.78,110.61-70.26,132.87-93.22,22.26-22.96,80-86.96,94.61-116.87,14.61-29.91,49.39-82.09,55.65-105.74,6.26-23.65,13.91-52.17,13.91-52.17h48s41.04-14.61,52.87-48.7c11.83-34.09,57.74-160,57.74-160,0,0-3.48-75.13-22.26-94.61Zm-25.04,103.65l-24.35,63.3s-10.43,34.09-18.09,60.52c-7.65,26.43-33.39,32.7-33.39,32.7l-66.09.7s-9.04,34.09-16,61.91c-6.96,27.83-32.7,81.39-32.7,81.39,0,0-53.57,86.26-107.83,133.57-54.26,47.3-160.7,89.04-192.7,91.13s-68.17-4.17-99.48-16.7c-31.3-12.52-110.61-82.09-168.35-151.65-57.74-69.57-77.22-170.43-77.22-170.43v-486.96l84.87-87.65h602.43l-.7,120.35,61.22,75.83.7,176.7,23.65-34.09,24.35-34.09s17.39-5.57,34.09,11.83c16.7,17.39,5.57,71.65,5.57,71.65Z"/>
</svg>
